<?xml version="1.0" encoding="iso-8859-1"?>
<!-- Generator: Adobe Illustrator 19.0.0, SVG Export Plug-In . SVG Version: 6.00 Build 0)  -->
<svg version="1.1" id="Capa_1" xmlns="http://www.w3.org/2000/svg" xmlns:xlink="http://www.w3.org/1999/xlink" x="0px" y="0px"
	 viewBox="0 0 480.049 480.049" style="enable-background:new 0 0 480.049 480.049;" xml:space="preserve">
<g>
	<g>
		<path d="M360.025,104.005h-40v-96c0.002-4.418-3.578-8.002-7.996-8.004c-1.243-0.001-2.468,0.288-3.58,0.844l-12.424,6.216
			l-12.424-6.216c-2.251-1.125-4.901-1.125-7.152,0l-12.424,6.216l-12.424-6.216c-2.251-1.125-4.901-1.125-7.152,0l-12.424,6.216
			l-12.424-6.216c-2.251-1.125-4.901-1.125-7.152,0l-12.424,6.216l-12.424-6.216c-2.251-1.125-4.901-1.125-7.152,0l-12.424,6.216
			l-12.424-6.216c-2.251-1.125-4.901-1.125-7.152,0l-12.424,6.216l-12.424-6.216c-2.251-1.125-4.901-1.125-7.152,0l-12.424,6.216
			L91.601,0.846c-3.952-1.975-8.757-0.372-10.732,3.58c-0.555,1.112-0.844,2.337-0.844,3.58v256c0,13.255,10.745,24,24,24h56v184
			c-0.024,4.418,3.538,8.019,7.956,8.044c1.256,0.007,2.496-0.282,3.62-0.844l12.424-6.256l12.424,6.216
			c2.251,1.125,4.901,1.125,7.152,0l12.424-6.216l12.424,6.216c2.251,1.125,4.901,1.125,7.152,0l12.424-6.216l12.424,6.216
			c2.251,1.125,4.901,1.125,7.152,0l12.424-6.216l12.424,6.216c2.251,1.125,4.901,1.125,7.152,0l12.424-6.216l12.424,6.216
			c2.251,1.125,4.901,1.125,7.152,0l12.424-6.216l12.424,6.216c2.251,1.125,4.901,1.125,7.152,0l12.424-6.216l12.424,6.216
			c3.952,1.975,8.757,0.372,10.732-3.58c0.555-1.112,0.844-2.337,0.844-3.58v-328C399.998,121.925,382.105,104.032,360.025,104.005z
			 M160.025,272.005h-33.472c0.948-2.562,1.445-5.268,1.472-8v-128c0-8.837,7.163-16,16-16s16,7.163,16,16V272.005z
			 M144.025,104.005c-17.673,0-32,14.327-32,32v128c0,4.418-3.582,8-8,8s-8-3.582-8-8V20.949l4.424,2.216
			c2.251,1.125,4.901,1.125,7.152,0l12.424-6.216l12.424,6.216c2.251,1.125,4.901,1.125,7.152,0l12.424-6.216l12.424,6.216
			c2.251,1.125,4.901,1.125,7.152,0l12.424-6.216l12.424,6.216c2.251,1.125,4.901,1.125,7.152,0l12.424-6.216l12.424,6.216
			c2.251,1.125,4.901,1.125,7.152,0l12.424-6.216l12.424,6.216c2.251,1.125,4.901,1.125,7.152,0l12.424-6.216l12.424,6.216
			c2.251,1.125,4.901,1.125,7.152,0l4.424-2.216v83.056H144.025z M384.025,459.061l-4.424-2.216c-2.251-1.125-4.901-1.125-7.152,0
			l-12.424,6.216l-12.424-6.216c-2.251-1.125-4.901-1.125-7.152,0l-12.424,6.216l-12.424-6.216c-2.251-1.125-4.901-1.125-7.152,0
			l-12.424,6.216l-12.424-6.216c-2.251-1.125-4.901-1.125-7.152,0l-12.424,6.216l-12.424-6.216c-2.251-1.125-4.901-1.125-7.152,0
			l-12.424,6.216l-12.424-6.216c-2.251-1.125-4.901-1.125-7.152,0l-12.424,6.216l-12.424-6.216c-2.251-1.125-4.901-1.125-7.152,0
			l-4.424,2.216V136.005c0.009-5.62-1.474-11.141-4.296-16h188.296c13.255,0,24,10.745,24,24V459.061z"/>
	</g>
</g>
<g>
	<g>
		<path d="M336.025,384.005c-4.418,0-8-3.582-8-8s3.582-8,8-8h16c4.418,0,8-3.582,8-8s-3.582-8-8-8h-8c0-4.418-3.582-8-8-8
			s-8,3.582-8,8v1.472c-12.473,4.393-19.023,18.066-14.629,30.539c3.38,9.596,12.455,16.009,22.629,15.989c4.418,0,8,3.582,8,8
			s-3.582,8-8,8h-16c-4.418,0-8,3.582-8,8s3.582,8,8,8h8c0,4.418,3.582,8,8,8s8-3.582,8-8v-1.472
			c12.473-4.393,19.023-18.066,14.63-30.539C355.274,390.399,346.199,383.986,336.025,384.005z"/>
	</g>
</g>
<g>
	<g>
		<path d="M280.025,136.005h-80c-4.418,0-8,3.582-8,8s3.582,8,8,8h80c4.418,0,8-3.582,8-8S284.443,136.005,280.025,136.005z"/>
	</g>
</g>
<g>
	<g>
		<path d="M360.025,168.005h-160c-4.418,0-8,3.582-8,8s3.582,8,8,8h160c4.418,0,8-3.582,8-8S364.443,168.005,360.025,168.005z"/>
	</g>
</g>
<g>
	<g>
		<path d="M320.025,200.005h-120c-4.418,0-8,3.582-8,8s3.582,8,8,8h120c4.418,0,8-3.582,8-8S324.443,200.005,320.025,200.005z"/>
	</g>
</g>
<g>
	<g>
		<path d="M280.025,232.005h-80c-4.418,0-8,3.582-8,8s3.582,8,8,8h80c4.418,0,8-3.582,8-8S284.443,232.005,280.025,232.005z"/>
	</g>
</g>
<g>
	<g>
		<path d="M360.025,264.005h-160c-4.418,0-8,3.582-8,8s3.582,8,8,8h160c4.418,0,8-3.582,8-8S364.443,264.005,360.025,264.005z"/>
	</g>
</g>
<g>
	<g>
		<path d="M312.025,296.005h-112c-4.418,0-8,3.582-8,8s3.582,8,8,8h112c4.418,0,8-3.582,8-8S316.443,296.005,312.025,296.005z"/>
	</g>
</g>
<g>
	<g>
		<path d="M280.025,328.005h-80c-4.418,0-8,3.582-8,8s3.582,8,8,8h80c4.418,0,8-3.582,8-8S284.443,328.005,280.025,328.005z"/>
	</g>
</g>
<g>
	<g>
		<path d="M280.025,360.005h-80c-4.418,0-8,3.582-8,8s3.582,8,8,8h80c4.418,0,8-3.582,8-8S284.443,360.005,280.025,360.005z"/>
	</g>
</g>
<g>
	<g>
		<path d="M280.025,424.005h-80c-4.418,0-8,3.582-8,8s3.582,8,8,8h80c4.418,0,8-3.582,8-8S284.443,424.005,280.025,424.005z"/>
	</g>
</g>
<g>
	<g>
		<path d="M280.025,40.005h-160c-4.418,0-8,3.582-8,8s3.582,8,8,8h160c4.418,0,8-3.582,8-8S284.443,40.005,280.025,40.005z"/>
	</g>
</g>
<g>
	<g>
		<path d="M280.025,72.005h-160c-4.418,0-8,3.582-8,8s3.582,8,8,8h160c4.418,0,8-3.582,8-8S284.443,72.005,280.025,72.005z"/>
	</g>
</g>
<g>
</g>
<g>
</g>
<g>
</g>
<g>
</g>
<g>
</g>
<g>
</g>
<g>
</g>
<g>
</g>
<g>
</g>
<g>
</g>
<g>
</g>
<g>
</g>
<g>
</g>
<g>
</g>
<g>
</g>
</svg>
