<?xml version="1.0" encoding="iso-8859-1"?>
<!-- Generator: Adobe Illustrator 19.0.0, SVG Export Plug-In . SVG Version: 6.00 Build 0)  -->
<svg version="1.1" id="Capa_1" xmlns="http://www.w3.org/2000/svg" xmlns:xlink="http://www.w3.org/1999/xlink" x="0px" y="0px"
	 viewBox="0 0 480 480" style="enable-background:new 0 0 480 480;" xml:space="preserve">
<g>
	<g>
		<path d="M456,160h-40V88c0-13.255-10.745-24-24-24H24C10.745,64,0,74.745,0,88v208c0,13.255,10.745,24,24,24h40v72
			c0,13.255,10.745,24,24,24h368c13.255,0,24-10.745,24-24V184C480,170.745,469.255,160,456,160z M16,88c0-4.418,3.582-8,8-8h368
			c4.418,0,8,3.582,8,8v16H16V88z M64,304H24c-4.418,0-8-3.582-8-8V192h48V304z M65.472,176H16v-56h384v40H88
			C77.866,160.042,68.85,166.445,65.472,176z M464,392c0,4.418-3.582,8-8,8H88c-4.418,0-8-3.582-8-8V184c0-4.418,3.582-8,8-8h368
			c4.418,0,8,3.582,8,8V392z"/>
	</g>
</g>
<g>
	<g>
		<path d="M203.167,196c-12.233-5.333-26.134-5.333-38.367,0c-0.24,0.143-0.47,0.304-0.688,0.48
			c-6.296-2.945-13.161-4.475-20.112-4.48c-26.51,0-48,21.49-48,48c0,26.51,21.49,48,48,48c6.951-0.005,13.816-1.535,20.112-4.48
			c0.218,0.176,0.448,0.337,0.688,0.48c24.301,10.595,52.589-0.516,63.183-24.817C238.578,234.883,227.467,206.595,203.167,196z
			 M144,272c-17.673,0-32-14.327-32-32s14.327-32,32-32s32,14.327,32,32S161.673,272,144,272z M184,272
			c-1.34-0.051-2.676-0.185-4-0.4c15.946-18.049,15.946-45.151,0-63.2l0.04,0c1.311-0.214,2.633-0.347,3.96-0.4
			c17.673,0,32,14.327,32,32S201.673,272,184,272z"/>
	</g>
</g>
<g>
	<g>
		<path d="M416,312H144c-4.418,0-8,3.582-8,8s3.582,8,8,8h272c4.418,0,8-3.582,8-8S420.418,312,416,312z"/>
	</g>
</g>
<g>
	<g>
		<path d="M184,352h-40c-4.418,0-8,3.582-8,8s3.582,8,8,8h40c4.418,0,8-3.582,8-8S188.418,352,184,352z"/>
	</g>
</g>
<g>
	<g>
		<path d="M264,352h-48c-4.418,0-8,3.582-8,8s3.582,8,8,8h48c4.418,0,8-3.582,8-8S268.418,352,264,352z"/>
	</g>
</g>
<g>
	<g>
		<path d="M344,352h-48c-4.418,0-8,3.582-8,8s3.582,8,8,8h48c4.418,0,8-3.582,8-8S348.418,352,344,352z"/>
	</g>
</g>
<g>
	<g>
		<path d="M416,352h-40c-4.418,0-8,3.582-8,8s3.582,8,8,8h40c4.418,0,8-3.582,8-8S420.418,352,416,352z"/>
	</g>
</g>
<g>
	<g>
		<path d="M408,216h-48c-8.837,0-16,7.163-16,16v32c0,8.837,7.163,16,16,16h48c8.837,0,16-7.163,16-16v-32
			C424,223.163,416.837,216,408,216z M408,264h-48v-32h48V264z"/>
	</g>
</g>
<g>
</g>
<g>
</g>
<g>
</g>
<g>
</g>
<g>
</g>
<g>
</g>
<g>
</g>
<g>
</g>
<g>
</g>
<g>
</g>
<g>
</g>
<g>
</g>
<g>
</g>
<g>
</g>
<g>
</g>
</svg>
