<?xml version="1.0" encoding="iso-8859-1"?>
<!-- Generator: Adobe Illustrator 19.0.0, SVG Export Plug-In . SVG Version: 6.00 Build 0)  -->
<svg version="1.1" id="Capa_1" xmlns="http://www.w3.org/2000/svg" xmlns:xlink="http://www.w3.org/1999/xlink" x="0px" y="0px"
	 viewBox="0 0 480 480" style="enable-background:new 0 0 480 480;" xml:space="preserve">
<g>
	<g>
		<path d="M420,0H76c-4.418,0-8,3.582-8,8v32h-8c-4.418,0-8,3.582-8,8s3.582,8,8,8h8v16h-8c-4.418,0-8,3.582-8,8s3.582,8,8,8h8v16
			h-8c-4.418,0-8,3.582-8,8s3.582,8,8,8h8v16h-8c-4.418,0-8,3.582-8,8s3.582,8,8,8h8v16h-8c-4.418,0-8,3.582-8,8s3.582,8,8,8h8v16
			h-8c-4.418,0-8,3.582-8,8s3.582,8,8,8h8v16h-8c-4.418,0-8,3.582-8,8s3.582,8,8,8h8v16h-8c-4.418,0-8,3.582-8,8s3.582,8,8,8h8v16
			h-8c-4.418,0-8,3.582-8,8s3.582,8,8,8h8v16h-8c-4.418,0-8,3.582-8,8s3.582,8,8,8h8v16h-8c-4.418,0-8,3.582-8,8s3.582,8,8,8h8v16
			h-8c-4.418,0-8,3.582-8,8s3.582,8,8,8h8v16h-8c-4.418,0-8,3.582-8,8s3.582,8,8,8h8v32c0,4.418,3.582,8,8,8h344
			c4.418,0,8-3.582,8-8V8C428,3.582,424.418,0,420,0z M412,464H84v-24h8c4.418,0,8-3.582,8-8s-3.582-8-8-8h-8v-16h8
			c4.418,0,8-3.582,8-8s-3.582-8-8-8h-8v-16h8c4.418,0,8-3.582,8-8s-3.582-8-8-8h-8v-16h8c4.418,0,8-3.582,8-8s-3.582-8-8-8h-8v-16
			h8c4.418,0,8-3.582,8-8s-3.582-8-8-8h-8v-16h8c4.418,0,8-3.582,8-8s-3.582-8-8-8h-8v-16h8c4.418,0,8-3.582,8-8s-3.582-8-8-8h-8
			v-16h8c4.418,0,8-3.582,8-8s-3.582-8-8-8h-8v-16h8c4.418,0,8-3.582,8-8s-3.582-8-8-8h-8v-16h8c4.418,0,8-3.582,8-8s-3.582-8-8-8
			h-8v-16h8c4.418,0,8-3.582,8-8s-3.582-8-8-8h-8V88h8c4.418,0,8-3.582,8-8s-3.582-8-8-8h-8V56h8c4.418,0,8-3.582,8-8s-3.582-8-8-8
			h-8V16h328V464z"/>
	</g>
</g>
<g>
	<g>
		<path d="M244,160c-35.288,0-64,35.888-64,80s28.712,80,64,80c35.288,0,64-35.888,64-80S279.288,160,244,160z M244,304
			c-26.472,0-48-28.712-48-64c0-35.288,21.528-64,48-64s48,28.712,48,64C292,275.288,270.472,304,244,304z"/>
	</g>
</g>
<g>
	<g>
		<path d="M166.528,40.408c-3.267-1.088-6.863,0.037-8.928,2.792L140,66.664L122.4,43.2c-2.651-3.535-7.665-4.251-11.2-1.6
			c-2.014,1.511-3.2,3.882-3.2,6.4v64c0,4.418,3.582,8,8,8s8-3.582,8-8V72l9.6,12.8c2.908,3.535,8.131,4.042,11.666,1.134
			c0.414-0.34,0.794-0.72,1.134-1.134L156,72v40c0,4.418,3.582,8,8,8s8-3.582,8-8V48C172.001,44.555,169.796,41.497,166.528,40.408z
			"/>
	</g>
</g>
<g>
	<g>
		<path d="M236,104h-32V88h24c4.418,0,8-3.582,8-8s-3.582-8-8-8h-24V56h32c4.418,0,8-3.582,8-8s-3.582-8-8-8h-40
			c-4.418,0-8,3.582-8,8v64c0,4.418,3.582,8,8,8h40c4.418,0,8-3.582,8-8S240.418,104,236,104z"/>
	</g>
</g>
<g>
	<g>
		<path d="M308,40c-4.418,0-8,3.582-8,8v36.104L274.784,43.76c-2.342-3.747-7.277-4.886-11.024-2.544
			C261.421,42.678,260,45.242,260,48v64c0,4.418,3.582,8,8,8s8-3.582,8-8V75.896l25.216,40.344
			c2.342,3.747,7.277,4.886,11.024,2.544c2.339-1.462,3.76-4.026,3.76-6.784V48C316,43.582,312.418,40,308,40z"/>
	</g>
</g>
<g>
	<g>
		<path d="M380,40c-4.418,0-8,3.582-8,8v44c0,6.627-5.373,12-12,12c-6.627,0-12-5.373-12-12V48c0-4.418-3.582-8-8-8s-8,3.582-8,8v44
			c0,15.464,12.536,28,28,28c15.464,0,28-12.536,28-28V48C388,43.582,384.418,40,380,40z"/>
	</g>
</g>
<g>
</g>
<g>
</g>
<g>
</g>
<g>
</g>
<g>
</g>
<g>
</g>
<g>
</g>
<g>
</g>
<g>
</g>
<g>
</g>
<g>
</g>
<g>
</g>
<g>
</g>
<g>
</g>
<g>
</g>
</svg>
